<?xml version="1.0" encoding="utf-8"?>
<!-- Generator: Adobe Illustrator 21.1.0, SVG Export Plug-In . SVG Version: 6.00 Build 0)  -->
<svg version="1.1" id="Layer_1" xmlns="http://www.w3.org/2000/svg" xmlns:xlink="http://www.w3.org/1999/xlink" x="0px" y="0px"
	 viewBox="0 0 10 10" style="enable-background:new 0 0 10 10;" xml:space="preserve">
<style type="text/css">
	.st0{fill:#000001;}
	.st1{fill:#6B6D70;}
	.st2{fill-rule:evenodd;clip-rule:evenodd;fill:#000001;}
	.st3{fill:#FFFFFF;}
</style>
<g>
	<path class="st0" d="M2.7,1.7C2.1,1.7,1.5,2,1,2.4c-0.4,0.4-0.7,1-0.7,1.7v5.3h0.6V4.1c0-0.5,0.2-0.9,0.5-1.3
		c0.3-0.3,0.8-0.5,1.2-0.5h1.3V1.7H2.7z"/>
	<path class="st1" d="M7.3,0.6H4.4v0.6h2.9c1,0,1.8,0.8,1.8,1.8v1.1C8.6,3.6,8,3.3,7.3,3.3H5.8c-1.3,0-2.4,1.1-2.4,2.4v0.7
		c0,1.3,1.1,2.4,2.4,2.4h1.5c1.3,0,2.4-1.1,2.4-2.4V3C9.7,1.7,8.6,0.6,7.3,0.6z M9.1,5.6v0.7c0,1-0.8,1.8-1.8,1.8H5.8
		C4.8,8.1,4,7.3,4,6.3V5.7c0-1,0.8-1.8,1.8-1.8h1.5C8.3,3.9,9.1,4.7,9.1,5.6z"/>
	<path class="st2" d="M8.6,6.3V5.7c0-0.4-0.2-0.7-0.4-1C8,4.5,7.6,4.3,7.2,4.3H5.9c-0.4,0-0.7,0.1-1,0.4C4.7,5,4.5,5.3,4.5,5.7v0.6
		c0,0.4,0.2,0.7,0.4,1c0.2,0.3,0.6,0.4,1,0.4h1.4c0.4,0,0.7-0.1,1-0.4C8.5,7,8.6,6.7,8.6,6.3L8.6,6.3z"/>
	<path class="st3" d="M6.1,4.9c0,0-0.1-0.1-0.2,0C5.5,5,5.2,5.3,5.1,5.7l0,0c0,0,0,0.1,0,0.1l0,0c0,0,0.1,0.1,0.1,0.1h0.1
		c0.1,0,0.2-0.1,0.2-0.2c0-0.2,0.2-0.4,0.4-0.5c0.1,0,0.2-0.1,0.2-0.2v0C6.2,5,6.2,5,6.1,4.9z"/>
</g>
</svg>
